<svg width="100" height="100" viewBox="0 0 100 100" fill="none" xmlns="http://www.w3.org/2000/svg">
<g filter="url(#filter0_d_112_7594)">
<rect x="30" y="30" width="40" height="40" rx="8" fill="#FF7A00" shape-rendering="crispEdges"/>
<path d="M44.2996 59.9754L43.9746 56.9254L46.8496 49.0004C47.1829 49.3671 47.5663 49.6587 47.9996 49.8754C48.4329 50.0921 48.8663 50.2254 49.2996 50.2754L46.5496 57.8504L44.2996 59.9754V59.9754M55.6996 59.9754L53.4496 57.8504L50.6996 50.2754C51.1329 50.2254 51.5663 50.0921 51.9996 49.8754C52.4329 49.6587 52.8163 49.3671 53.1496 49.0004L56.0246 56.9254L55.6996 59.9754V59.9754M49.9996 49.3254C49.0163 49.3254 48.1746 48.9754 47.4746 48.2754C46.7746 47.5754 46.4246 46.7337 46.4246 45.7504C46.4246 44.9504 46.6413 44.2587 47.0746 43.6754C47.5079 43.0921 48.0246 42.6837 48.6246 42.4504V40.0254H51.3746V42.4504C51.9746 42.6837 52.4913 43.0921 52.9246 43.6754C53.3579 44.2587 53.5746 44.9504 53.5746 45.7504C53.5746 46.7337 53.2246 47.5754 52.5246 48.2754C51.8246 48.9754 50.9829 49.3254 49.9996 49.3254V49.3254M49.9996 46.5504C50.2163 46.5504 50.4038 46.4712 50.5621 46.3129C50.7204 46.1546 50.7996 45.9671 50.7996 45.7504C50.7996 45.5337 50.7204 45.3462 50.5621 45.1879C50.4038 45.0296 50.2163 44.9504 49.9996 44.9504C49.7829 44.9504 49.5954 45.0296 49.4371 45.1879C49.2788 45.3462 49.1996 45.5337 49.1996 45.7504C49.1996 45.9671 49.2788 46.1546 49.4371 46.3129C49.5954 46.4712 49.7829 46.5504 49.9996 46.5504V46.5504" fill="white"/>
</g>
<defs>
<filter id="filter0_d_112_7594" x="0" y="0" width="100" height="100" filterUnits="userSpaceOnUse" color-interpolation-filters="sRGB">
<feFlood flood-opacity="0" result="BackgroundImageFix"/>
<feColorMatrix in="SourceAlpha" type="matrix" values="0 0 0 0 0 0 0 0 0 0 0 0 0 0 0 0 0 0 127 0" result="hardAlpha"/>
<feOffset/>
<feGaussianBlur stdDeviation="15"/>
<feComposite in2="hardAlpha" operator="out"/>
<feColorMatrix type="matrix" values="0 0 0 0 1 0 0 0 0 0.478431 0 0 0 0 0 0 0 0 0.4 0"/>
<feBlend mode="normal" in2="BackgroundImageFix" result="effect1_dropShadow_112_7594"/>
<feBlend mode="normal" in="SourceGraphic" in2="effect1_dropShadow_112_7594" result="shape"/>
</filter>
</defs>
</svg>
